<svg xmlns="http://www.w3.org/2000/svg" width="256" height="256" viewBox="0 0 100 100"><rect width="100" height="100" rx="20" fill="#161629"></rect><path fill="#f5fffa" d="M24.54 71.48L10.23 71.48Q9.03 71.48 8.20 70.65Q7.38 69.83 7.38 68.62L7.38 68.62L7.38 31.38Q7.38 30.12 8.20 29.32Q9.03 28.52 10.23 28.52L10.23 28.52L23.38 28.52Q27.12 28.52 29.95 29.98Q32.78 31.44 34.41 34.02Q36.03 36.61 36.03 39.96L36.03 39.96Q36.03 42.66 34.57 44.83Q33.11 47.00 30.59 48.27L30.59 48.27Q34.22 49.15 36.41 51.73Q38.62 54.32 38.62 58.50L38.62 58.50Q38.62 62.29 36.83 65.21Q35.04 68.12 31.85 69.80Q28.66 71.48 24.54 71.48L24.54 71.48ZM13.10 51.46L13.10 66.20L24.54 66.20Q27.07 66.20 28.99 65.32Q30.91 64.44 32.02 62.73Q33.11 61.03 33.11 58.50L33.11 58.50Q33.11 56.13 32.02 54.59Q30.91 53.05 28.99 52.25Q27.07 51.46 24.54 51.46L24.54 51.46L13.10 51.46ZM13.10 33.80L13.10 46.18L23.38 46.18Q26.52 46.18 28.52 44.64Q30.53 43.10 30.53 39.96L30.53 39.96Q30.53 36.83 28.52 35.31Q26.52 33.80 23.38 33.80L23.38 33.80L13.10 33.80ZM56.27 71.48L56.27 71.48Q55.28 71.48 54.51 70.87Q53.74 70.27 53.41 69.22L53.41 69.22L42.36 32.48Q41.80 30.67 42.44 29.59Q43.07 28.52 44.50 28.52L44.50 28.52Q45.44 28.52 46.20 29.04Q46.98 29.57 47.30 30.67L47.30 30.67L56.93 64.22L55.72 64.22L64.63 31.00Q64.85 30.17 65.62 29.62Q66.39 29.07 67.38 29.07L67.38 29.07Q68.26 29.07 69.06 29.54Q69.86 30.01 70.08 30.94L70.08 30.94L79.04 64.22L77.94 64.22L87.62 30.39Q88.17 28.52 90.43 28.52L90.43 28.52Q91.97 28.52 92.41 29.70Q92.84 30.89 92.41 32.48L92.41 32.48L81.35 69.17Q80.97 70.21 80.22 70.84Q79.48 71.48 78.49 71.48L78.49 71.48Q77.44 71.48 76.70 70.82Q75.96 70.16 75.63 69.22L75.63 69.22L66.78 35.01L68.09 35.01L59.13 69.17Q58.75 70.21 58.00 70.84Q57.26 71.48 56.27 71.48Z"></path></svg>